<svg xmlns="http://www.w3.org/2000/svg" xmlns:svg="http://www.w3.org/2000/svg" id="svg8" width="100mm" height="100mm" version="1.1" viewBox="21.5 10 96.5 85"><defs id="defs2"><clipPath id="clipPath3729" clipPathUnits="userSpaceOnUse"><path id="path3727" d="M 0,600 H 600 V 0 H 0 Z"/></clipPath><clipPath id="clipPath6055" clipPathUnits="userSpaceOnUse"><path id="path6057" d="m 504.16311,-311.25446 -106.92391,61.71663 c -4.00011,2.30541 -6.46073,6.57015 -6.46073,11.1835 v 0 123.53504 c 0,4.61589 2.46062,8.87809 6.45564,11.18858 v 0 l 106.92391,61.767519 c 3.99756,2.307948 8.92389,2.307948 12.924,0 v 0 l 106.94682,-61.767519 c 3.99756,-2.31049 6.45818,-6.57269 6.45818,-11.18858 v 0 -123.52995 c 0,-4.61844 -2.46062,-8.88318 -6.46073,-11.18859 v 0 l -106.94936,-61.71663 c -1.9975,-1.15524 -4.22657,-1.73032 -6.45818,-1.73032 v 0 c -2.22906,0 -4.46068,0.57508 -6.45564,1.73032" clip-path="none" style="display:inline;fill:#fff;fill-opacity:1;stroke:none;stroke-width:2.54459572"/></clipPath></defs><metadata id="metadata5"/><g style="display:inline" id="g988"><path style="display:inline;fill:#3c873a;fill-opacity:1;stroke:none" id="path986" d="m 238.756,373.131 -42.02,-24.254 c -1.572,-0.906 -2.539,-2.582 -2.539,-4.395 v 0 -48.548 c 0,-1.814 0.967,-3.489 2.537,-4.397 v 0 l 42.02,-24.274 c 1.571,-0.907 3.507,-0.907 5.079,0 v 0 l 42.029,24.274 c 1.571,0.908 2.538,2.583 2.538,4.397 v 0 48.546 c 0,1.815 -0.967,3.491 -2.539,4.397 v 0 l -42.03,24.254 c -0.785,0.454 -1.661,0.68 -2.538,0.68 v 0 c -0.876,0 -1.753,-0.226 -2.537,-0.68" transform="matrix(0.85414046,0,0,-0.85414046,-136.62306,325.68399)"/></g><g style="display:inline" id="g6024" transform="translate(0,-137)"><g id="text6020" aria-label="TS" clip-path="url(#clipPath6055)" transform="matrix(0.33566843,0,0,0.33566843,-101.92354,248.65528)" style="font-style:normal;font-weight:400;font-size:179.62197876px;line-height:1.25;font-family:sans-serif;letter-spacing:0;word-spacing:0;fill:#fff;fill-opacity:1;stroke:none;stroke-width:4.49055004;stroke-opacity:1"><path id="path6026" d="m 463.02884,-49.655869 h 25.14663 V -149.70353 h 34.84604 v -22.09311 H 428.1828 v 22.09311 h 34.84604 z" style="font-style:normal;font-variant:normal;font-weight:700;font-stretch:normal;font-size:179.61877441px;font-family:'Neutra Text';-inkscape-font-specification:'Neutra Text, Bold';font-variant-ligatures:normal;font-variant-caps:normal;font-variant-numeric:normal;font-feature-settings:normal;text-align:start;writing-mode:lr-tb;text-anchor:start;fill:#fff;fill-opacity:1;stroke:none;stroke-width:4.49055004;stroke-opacity:1"/><path id="path6028" d="m 575.63859,-48.0393 c 23.88929,0 41.67155,-12.393695 41.67155,-35.025661 0,-21.015399 -12.03446,-30.355569 -33.40909,-39.516129 l -6.28666,-2.69428 c -10.77712,-4.67009 -15.44721,-7.72361 -15.44721,-15.2676 0,-6.10704 4.67009,-10.77712 12.03446,-10.77712 7.18475,0 11.85484,3.05351 16.16569,10.77712 l 19.57844,-12.57331 c -8.26246,-14.54912 -19.75806,-20.11731 -35.74413,-20.11731 -22.45235,0 -36.82185,14.36951 -36.82185,33.22948 0,20.47654 12.03446,30.17595 30.17595,37.89956 l 6.28666,2.694281 c 11.4956,5.029326 18.32111,8.082845 18.32111,16.704546 0,7.184751 -6.64589,12.393695 -17.06378,12.393695 -12.39369,0 -19.39883,-6.466275 -24.78739,-15.267595 l -20.47654,11.854839 c 7.36437,14.54912 22.45235,25.685484 45.80279,25.685484 z" style="font-style:normal;font-variant:normal;font-weight:700;font-stretch:normal;font-size:179.61877441px;font-family:'Neutra Text';-inkscape-font-specification:'Neutra Text, Bold';font-variant-ligatures:normal;font-variant-caps:normal;font-variant-numeric:normal;font-feature-settings:normal;text-align:start;writing-mode:lr-tb;text-anchor:start;fill:#fff;fill-opacity:1;stroke:none;stroke-width:4.49055004;stroke-opacity:1"/></g></g></svg>